<?xml version="1.0" encoding="UTF-8" standalone="no"?>
<!DOCTYPE svg PUBLIC "-//W3C//DTD SVG 1.1//EN" "http://www.w3.org/Graphics/SVG/1.1/DTD/svg11.dtd">
<!-- Created with Vectornator (http://vectornator.io/) -->
<svg height="100%" stroke-miterlimit="10" style="fill-rule:nonzero;clip-rule:evenodd;stroke-linecap:round;stroke-linejoin:round;" version="1.1" viewBox="0 0 500 500" width="100%" xml:space="preserve" xmlns="http://www.w3.org/2000/svg" xmlns:vectornator="http://vectornator.io" xmlns:xlink="http://www.w3.org/1999/xlink">
<defs>
<linearGradient gradientTransform="matrix(105.688 0 0 105.688 197.156 250)" gradientUnits="userSpaceOnUse" id="LinearGradient" x1="0" x2="1" y1="0" y2="0">
<stop offset="0" stop-color="#93accd"/>
<stop offset="1" stop-color="#02d6b6"/>
</linearGradient>
</defs>
<g id="Calque-1" vectornator:layerName="Calque 1">
<path d="M236.438 222.543C236.438 222.543 229.631 231.952 232.094 238.23C232.094 238.23 240.439 243.524 242.969 247.824C242.969 247.824 243.365 239.704 247.562 234.043C247.562 234.043 243.847 225.901 236.438 222.543ZM263.562 222.543C256.153 225.901 252.438 234.043 252.438 234.043C256.635 239.704 257.031 247.824 257.031 247.824C259.561 243.524 267.906 238.23 267.906 238.23C270.369 231.952 263.562 222.543 263.562 222.543ZM211.094 235.262C211.094 235.262 209.795 246.792 215.031 251.043C215.031 251.043 224.899 251.515 229.219 254.012C229.219 254.012 225.573 246.756 226.438 239.762C226.438 239.762 219.196 234.534 211.094 235.262ZM288.906 235.637C280.804 234.909 273.562 240.168 273.562 240.168C274.427 247.162 270.781 254.387 270.781 254.387C275.101 251.89 284.969 251.418 284.969 251.418C290.205 247.167 288.906 235.637 288.906 235.637ZM249.688 238.98C244.827 248.848 249.781 262.793 249.781 262.793C256.342 250.007 249.688 238.98 249.688 238.98ZM231.562 243.762C231.562 243.762 231.541 256.68 243.75 264.262C243.75 264.262 240.811 249.717 231.562 243.762ZM268.438 243.762C259.189 249.717 256.25 264.262 256.25 264.262C268.459 256.68 268.438 243.762 268.438 243.762ZM211.531 255.543C211.531 255.543 207.301 255.641 197.156 260.887C197.156 260.887 212.85 285.586 240.281 273.98C240.281 273.98 217.108 271.271 211.531 255.543ZM288.469 255.918C282.892 271.646 259.719 274.355 259.719 274.355C287.15 285.961 302.844 261.262 302.844 261.262C292.699 256.016 288.469 255.918 288.469 255.918ZM218.875 256.512C218.875 256.512 225.204 267.728 239.562 268.324C239.562 268.324 229.857 257.148 218.875 256.512ZM281.125 256.887C270.143 257.523 260.438 268.73 260.438 268.73C274.796 268.134 281.125 256.887 281.125 256.887Z" fill="url(#LinearGradient)" fill-rule="nonzero" opacity="1" stroke="none" vectornator:layerName="Courbe 1"/>
</g>
</svg>
