<svg width="106" height="56" viewBox="0 0 106 56" fill="none" xmlns="http://www.w3.org/2000/svg">
<path d="M39.438 0.542999C39.438 0.542999 32.631 9.952 35.094 16.23C35.094 16.23 43.439 21.524 45.969 25.824C45.969 25.824 46.365 17.704 50.562 12.043C50.562 12.043 46.847 3.901 39.438 0.542999ZM66.562 0.542999C59.153 3.901 55.438 12.043 55.438 12.043C59.635 17.704 60.031 25.824 60.031 25.824C62.561 21.524 70.906 16.23 70.906 16.23C73.369 9.952 66.562 0.542999 66.562 0.542999ZM14.094 13.262C14.094 13.262 12.795 24.792 18.031 29.043C18.031 29.043 27.899 29.515 32.219 32.012C32.219 32.012 28.573 24.756 29.438 17.762C29.438 17.762 22.196 12.534 14.094 13.262ZM91.906 13.637C83.804 12.909 76.562 18.168 76.562 18.168C77.427 25.162 73.781 32.387 73.781 32.387C78.101 29.89 87.969 29.418 87.969 29.418C93.205 25.167 91.906 13.637 91.906 13.637ZM52.688 16.98C47.827 26.848 52.781 40.793 52.781 40.793C59.342 28.007 52.688 16.98 52.688 16.98ZM34.562 21.762C34.562 21.762 34.541 34.68 46.75 42.262C46.75 42.262 43.811 27.717 34.562 21.762ZM71.438 21.762C62.189 27.717 59.25 42.262 59.25 42.262C71.459 34.68 71.438 21.762 71.438 21.762ZM14.531 33.543C14.531 33.543 10.301 33.641 0.156006 38.887C0.156006 38.887 15.85 63.586 43.281 51.98C43.281 51.98 20.108 49.271 14.531 33.543ZM91.469 33.918C85.892 49.646 62.719 52.355 62.719 52.355C90.15 63.961 105.844 39.262 105.844 39.262C95.699 34.016 91.469 33.918 91.469 33.918ZM21.875 34.512C21.875 34.512 28.204 45.728 42.562 46.324C42.562 46.324 32.857 35.148 21.875 34.512ZM84.125 34.887C73.143 35.523 63.438 46.73 63.438 46.73C77.796 46.134 84.125 34.887 84.125 34.887Z" fill="url(#paint0_linear_5_4)"/>
<defs>
<linearGradient id="paint0_linear_5_4" x1="0.156006" y1="28" x2="105.844" y2="28" gradientUnits="userSpaceOnUse">
<stop stop-color="#93ACCD"/>
<stop offset="1" stop-color="#02D6B6"/>
</linearGradient>
</defs>
</svg>
